<mxfile host="Electron" modified="2024-04-10T13:50:10.448Z" agent="Mozilla/5.0 (Windows NT 10.0; Win64; x64) AppleWebKit/537.36 (KHTML, like Gecko) draw.io/22.1.2 Chrome/114.0.5735.289 Electron/25.9.4 Safari/537.36" etag="4VEwpy6gI799Hph2ceFZ" version="22.1.2" type="device">
  <diagram name="Page-1" id="90a13364-a465-7bf4-72fc-28e22215d7a0">
    <mxGraphModel dx="1963" dy="945" grid="1" gridSize="10" guides="1" tooltips="1" connect="1" arrows="1" fold="1" page="1" pageScale="1.5" pageWidth="1169" pageHeight="826" background="none" math="0" shadow="0">
      <root>
        <mxCell id="0" style=";html=1;" />
        <mxCell id="1" style=";html=1;" parent="0" />
        <mxCell id="3a17f1ce550125da-13" style="edgeStyle=elbowEdgeStyle;rounded=0;html=1;startArrow=none;startFill=0;jettySize=auto;orthogonalLoop=1;fontSize=18;elbow=vertical;labelBackgroundColor=none;fontColor=default;" parent="1" edge="1">
          <mxGeometry relative="1" as="geometry">
            <mxPoint x="957" y="380" as="sourcePoint" />
            <mxPoint x="1110" y="380" as="targetPoint" />
            <Array as="points">
              <mxPoint x="1020" y="380" />
              <mxPoint x="1060" y="380" />
            </Array>
          </mxGeometry>
        </mxCell>
        <mxCell id="3a17f1ce550125da-2" value="RabbitMQ" style="whiteSpace=wrap;html=1;shadow=1;fontSize=18;labelBackgroundColor=none;" parent="1" vertex="1">
          <mxGeometry x="787" y="370" width="170" height="510" as="geometry" />
        </mxCell>
        <mxCell id="3a17f1ce550125da-4" value="Worker" style="whiteSpace=wrap;html=1;shadow=1;fontSize=18;labelBackgroundColor=none;" parent="1" vertex="1">
          <mxGeometry x="1110" y="370" width="193" height="320" as="geometry" />
        </mxCell>
        <mxCell id="3a17f1ce550125da-20" style="edgeStyle=elbowEdgeStyle;rounded=0;html=1;startArrow=none;startFill=0;jettySize=auto;orthogonalLoop=1;fontSize=18;elbow=vertical;labelBackgroundColor=none;fontColor=default;" parent="1" edge="1">
          <mxGeometry relative="1" as="geometry">
            <Array as="points">
              <mxPoint x="630" y="406" />
              <mxPoint x="757" y="440" />
            </Array>
            <mxPoint x="490" y="406" as="sourcePoint" />
            <mxPoint x="787" y="406" as="targetPoint" />
          </mxGeometry>
        </mxCell>
        <mxCell id="3a17f1ce550125da-8" value="Manager" style="whiteSpace=wrap;html=1;shadow=1;fontSize=18;labelBackgroundColor=none;" parent="1" vertex="1">
          <mxGeometry x="370" y="365" width="120" height="510" as="geometry" />
        </mxCell>
        <mxCell id="3a17f1ce550125da-9" value="User" style="whiteSpace=wrap;html=1;shadow=1;fontSize=18;labelBackgroundColor=none;" parent="1" vertex="1">
          <mxGeometry x="50" y="390" width="120" height="450" as="geometry" />
        </mxCell>
        <mxCell id="AKCXDm1FOeJPtNoIFA7P-4" value="" style="endArrow=classic;html=1;rounded=0;exitX=-0.005;exitY=0.955;exitDx=0;exitDy=0;exitPerimeter=0;labelBackgroundColor=none;fontColor=default;" edge="1" parent="1">
          <mxGeometry width="50" height="50" relative="1" as="geometry">
            <mxPoint x="1109.9950000000003" y="440.13" as="sourcePoint" />
            <mxPoint x="960.96" y="440" as="targetPoint" />
          </mxGeometry>
        </mxCell>
        <mxCell id="AKCXDm1FOeJPtNoIFA7P-13" style="edgeStyle=orthogonalEdgeStyle;rounded=0;orthogonalLoop=1;jettySize=auto;html=1;exitX=1;exitY=0;exitDx=0;exitDy=0;entryX=0.5;entryY=1;entryDx=0;entryDy=0;labelBackgroundColor=none;fontColor=default;" edge="1" parent="1" source="AKCXDm1FOeJPtNoIFA7P-5" target="AKCXDm1FOeJPtNoIFA7P-9">
          <mxGeometry relative="1" as="geometry" />
        </mxCell>
        <mxCell id="AKCXDm1FOeJPtNoIFA7P-5" value="&lt;font style=&quot;font-size: 18px;&quot;&gt;Mongo Primary&lt;/font&gt;" style="rounded=0;whiteSpace=wrap;html=1;labelBackgroundColor=none;" vertex="1" parent="1">
          <mxGeometry x="782" y="230" width="180" height="90" as="geometry" />
        </mxCell>
        <mxCell id="AKCXDm1FOeJPtNoIFA7P-8" value="&lt;font style=&quot;font-size: 18px;&quot;&gt;Mongo Secondary&lt;/font&gt;" style="rounded=0;whiteSpace=wrap;html=1;labelBackgroundColor=none;" vertex="1" parent="1">
          <mxGeometry x="607" y="90" width="180" height="90" as="geometry" />
        </mxCell>
        <mxCell id="AKCXDm1FOeJPtNoIFA7P-9" value="&lt;font style=&quot;font-size: 18px;&quot;&gt;Mongo Secondary&lt;/font&gt;" style="rounded=0;whiteSpace=wrap;html=1;labelBackgroundColor=none;" vertex="1" parent="1">
          <mxGeometry x="967" y="90" width="180" height="90" as="geometry" />
        </mxCell>
        <mxCell id="AKCXDm1FOeJPtNoIFA7P-12" style="edgeStyle=orthogonalEdgeStyle;rounded=0;orthogonalLoop=1;jettySize=auto;html=1;exitX=0;exitY=0;exitDx=0;exitDy=0;entryX=0.457;entryY=1.036;entryDx=0;entryDy=0;entryPerimeter=0;labelBackgroundColor=none;fontColor=default;" edge="1" parent="1" source="AKCXDm1FOeJPtNoIFA7P-5" target="AKCXDm1FOeJPtNoIFA7P-8">
          <mxGeometry relative="1" as="geometry" />
        </mxCell>
        <mxCell id="AKCXDm1FOeJPtNoIFA7P-27" value="saveCrackRequest" style="text;html=1;align=center;verticalAlign=middle;resizable=0;points=[];autosize=1;strokeColor=none;fillColor=none;" vertex="1" parent="1">
          <mxGeometry x="590" y="240" width="120" height="30" as="geometry" />
        </mxCell>
        <mxCell id="AKCXDm1FOeJPtNoIFA7P-28" value="saveParts" style="text;html=1;align=center;verticalAlign=middle;resizable=0;points=[];autosize=1;strokeColor=none;fillColor=none;" vertex="1" parent="1">
          <mxGeometry x="610" y="280" width="80" height="30" as="geometry" />
        </mxCell>
        <mxCell id="AKCXDm1FOeJPtNoIFA7P-31" value="" style="endArrow=classic;startArrow=classic;html=1;rounded=0;exitX=0.5;exitY=0;exitDx=0;exitDy=0;" edge="1" parent="1" source="3a17f1ce550125da-8">
          <mxGeometry width="50" height="50" relative="1" as="geometry">
            <mxPoint x="990" y="430" as="sourcePoint" />
            <mxPoint x="780" y="280" as="targetPoint" />
            <Array as="points">
              <mxPoint x="520" y="280" />
            </Array>
          </mxGeometry>
        </mxCell>
        <mxCell id="AKCXDm1FOeJPtNoIFA7P-32" value="getCrackRequest" style="text;html=1;align=center;verticalAlign=middle;resizable=0;points=[];autosize=1;strokeColor=none;fillColor=none;" vertex="1" parent="1">
          <mxGeometry x="370" y="280" width="120" height="30" as="geometry" />
        </mxCell>
        <mxCell id="AKCXDm1FOeJPtNoIFA7P-33" value="&lt;span style=&quot;color: rgb(0, 0, 0); font-family: Helvetica; font-size: 12px; font-style: normal; font-variant-ligatures: normal; font-variant-caps: normal; font-weight: 400; letter-spacing: normal; orphans: 2; text-align: center; text-indent: 0px; text-transform: none; widows: 2; word-spacing: 0px; -webkit-text-stroke-width: 0px; background-color: rgb(251, 251, 251); text-decoration-thickness: initial; text-decoration-style: initial; text-decoration-color: initial; float: none; display: inline !important;&quot;&gt;getParts&lt;/span&gt;" style="text;whiteSpace=wrap;html=1;" vertex="1" parent="1">
          <mxGeometry x="390" y="310" width="80" height="30" as="geometry" />
        </mxCell>
        <mxCell id="AKCXDm1FOeJPtNoIFA7P-34" value="repl" style="text;html=1;align=center;verticalAlign=middle;resizable=0;points=[];autosize=1;strokeColor=none;fillColor=none;" vertex="1" parent="1">
          <mxGeometry x="782" y="188" width="40" height="30" as="geometry" />
        </mxCell>
        <mxCell id="AKCXDm1FOeJPtNoIFA7P-35" value="repl" style="text;html=1;align=center;verticalAlign=middle;resizable=0;points=[];autosize=1;strokeColor=none;fillColor=none;" vertex="1" parent="1">
          <mxGeometry x="917" y="188" width="40" height="30" as="geometry" />
        </mxCell>
        <mxCell id="AKCXDm1FOeJPtNoIFA7P-36" value="saveCrackResultAnswer" style="text;html=1;align=center;verticalAlign=middle;resizable=0;points=[];autosize=1;strokeColor=none;fillColor=none;" vertex="1" parent="1">
          <mxGeometry x="975" y="238" width="150" height="30" as="geometry" />
        </mxCell>
        <mxCell id="AKCXDm1FOeJPtNoIFA7P-37" value="getCrackResultAnswer" style="text;html=1;align=center;verticalAlign=middle;resizable=0;points=[];autosize=1;strokeColor=none;fillColor=none;" vertex="1" parent="1">
          <mxGeometry x="1200" y="310" width="150" height="30" as="geometry" />
        </mxCell>
        <mxCell id="AKCXDm1FOeJPtNoIFA7P-39" value="getCrackRequestResult" style="text;html=1;align=center;verticalAlign=middle;resizable=0;points=[];autosize=1;strokeColor=none;fillColor=none;" vertex="1" parent="1">
          <mxGeometry x="560" y="470" width="150" height="30" as="geometry" />
        </mxCell>
        <mxCell id="AKCXDm1FOeJPtNoIFA7P-40" value="getPartToCrack" style="text;html=1;align=center;verticalAlign=middle;resizable=0;points=[];autosize=1;strokeColor=none;fillColor=none;" vertex="1" parent="1">
          <mxGeometry x="980" y="348" width="110" height="30" as="geometry" />
        </mxCell>
        <mxCell id="AKCXDm1FOeJPtNoIFA7P-41" value="&lt;span style=&quot;color: rgb(0, 0, 0); font-family: Helvetica; font-size: 12px; font-style: normal; font-variant-ligatures: normal; font-variant-caps: normal; font-weight: 400; letter-spacing: normal; orphans: 2; text-align: center; text-indent: 0px; text-transform: none; widows: 2; word-spacing: 0px; -webkit-text-stroke-width: 0px; background-color: rgb(251, 251, 251); text-decoration-thickness: initial; text-decoration-style: initial; text-decoration-color: initial; float: none; display: inline !important;&quot;&gt;sendCrackResultAnswer&lt;/span&gt;" style="text;whiteSpace=wrap;html=1;" vertex="1" parent="1">
          <mxGeometry x="970" y="414" width="160" height="40" as="geometry" />
        </mxCell>
        <mxCell id="AKCXDm1FOeJPtNoIFA7P-45" value="" style="endArrow=classic;html=1;rounded=0;entryX=1.023;entryY=0.44;entryDx=0;entryDy=0;exitX=-0.007;exitY=0.379;exitDx=0;exitDy=0;exitPerimeter=0;entryPerimeter=0;" edge="1" parent="1">
          <mxGeometry width="50" height="50" relative="1" as="geometry">
            <mxPoint x="787" y="500" as="sourcePoint" />
            <mxPoint x="493.95" y="500.9500000000003" as="targetPoint" />
          </mxGeometry>
        </mxCell>
        <mxCell id="AKCXDm1FOeJPtNoIFA7P-53" value="" style="endArrow=classic;html=1;rounded=0;entryX=1.002;entryY=0.378;entryDx=0;entryDy=0;entryPerimeter=0;exitX=-0.002;exitY=0.371;exitDx=0;exitDy=0;exitPerimeter=0;" edge="1" parent="1">
          <mxGeometry width="50" height="50" relative="1" as="geometry">
            <mxPoint x="786.9999999999999" y="455.43000000000006" as="sourcePoint" />
            <mxPoint x="490.58" y="454" as="targetPoint" />
          </mxGeometry>
        </mxCell>
        <mxCell id="AKCXDm1FOeJPtNoIFA7P-54" value="sendAck" style="text;html=1;align=center;verticalAlign=middle;resizable=0;points=[];autosize=1;strokeColor=none;fillColor=none;" vertex="1" parent="1">
          <mxGeometry x="600" y="419" width="70" height="30" as="geometry" />
        </mxCell>
        <mxCell id="AKCXDm1FOeJPtNoIFA7P-60" value="getPing" style="text;html=1;align=center;verticalAlign=middle;resizable=0;points=[];autosize=1;strokeColor=none;fillColor=none;" vertex="1" parent="1">
          <mxGeometry x="602" y="605" width="60" height="30" as="geometry" />
        </mxCell>
        <mxCell id="AKCXDm1FOeJPtNoIFA7P-63" style="edgeStyle=orthogonalEdgeStyle;rounded=0;orthogonalLoop=1;jettySize=auto;html=1;exitX=1;exitY=0.25;exitDx=0;exitDy=0;entryX=-0.058;entryY=0.27;entryDx=0;entryDy=0;entryPerimeter=0;" edge="1" parent="1" source="3a17f1ce550125da-9" target="3a17f1ce550125da-8">
          <mxGeometry relative="1" as="geometry" />
        </mxCell>
        <mxCell id="AKCXDm1FOeJPtNoIFA7P-65" value="" style="endArrow=classic;html=1;rounded=0;entryX=1.032;entryY=0.336;entryDx=0;entryDy=0;entryPerimeter=0;exitX=-0.026;exitY=0.348;exitDx=0;exitDy=0;exitPerimeter=0;" edge="1" parent="1" source="3a17f1ce550125da-8" target="3a17f1ce550125da-9">
          <mxGeometry width="50" height="50" relative="1" as="geometry">
            <mxPoint x="530" y="520" as="sourcePoint" />
            <mxPoint x="580" y="470" as="targetPoint" />
          </mxGeometry>
        </mxCell>
        <mxCell id="AKCXDm1FOeJPtNoIFA7P-66" value="crackRequest" style="text;html=1;align=center;verticalAlign=middle;resizable=0;points=[];autosize=1;strokeColor=none;fillColor=none;" vertex="1" parent="1">
          <mxGeometry x="200" y="468" width="100" height="30" as="geometry" />
        </mxCell>
        <mxCell id="AKCXDm1FOeJPtNoIFA7P-67" value="sendID" style="text;html=1;align=center;verticalAlign=middle;resizable=0;points=[];autosize=1;strokeColor=none;fillColor=none;" vertex="1" parent="1">
          <mxGeometry x="230" y="510" width="60" height="30" as="geometry" />
        </mxCell>
        <mxCell id="AKCXDm1FOeJPtNoIFA7P-68" value="" style="endArrow=classic;html=1;rounded=0;exitX=1.002;exitY=0.64;exitDx=0;exitDy=0;exitPerimeter=0;entryX=-0.011;entryY=0.611;entryDx=0;entryDy=0;entryPerimeter=0;" edge="1" parent="1" source="3a17f1ce550125da-9" target="3a17f1ce550125da-8">
          <mxGeometry width="50" height="50" relative="1" as="geometry">
            <mxPoint x="640" y="590" as="sourcePoint" />
            <mxPoint x="690" y="540" as="targetPoint" />
          </mxGeometry>
        </mxCell>
        <mxCell id="AKCXDm1FOeJPtNoIFA7P-69" value="" style="endArrow=classic;html=1;rounded=0;entryX=1;entryY=0.75;entryDx=0;entryDy=0;exitX=-0.005;exitY=0.716;exitDx=0;exitDy=0;exitPerimeter=0;" edge="1" parent="1" source="3a17f1ce550125da-8" target="3a17f1ce550125da-9">
          <mxGeometry width="50" height="50" relative="1" as="geometry">
            <mxPoint x="640" y="590" as="sourcePoint" />
            <mxPoint x="690" y="540" as="targetPoint" />
          </mxGeometry>
        </mxCell>
        <mxCell id="AKCXDm1FOeJPtNoIFA7P-70" value="getResultById" style="text;html=1;align=center;verticalAlign=middle;resizable=0;points=[];autosize=1;strokeColor=none;fillColor=none;" vertex="1" parent="1">
          <mxGeometry x="200" y="648" width="100" height="30" as="geometry" />
        </mxCell>
        <mxCell id="AKCXDm1FOeJPtNoIFA7P-71" value="sendResult" style="text;html=1;align=center;verticalAlign=middle;resizable=0;points=[];autosize=1;strokeColor=none;fillColor=none;" vertex="1" parent="1">
          <mxGeometry x="220" y="698" width="80" height="30" as="geometry" />
        </mxCell>
        <mxCell id="AKCXDm1FOeJPtNoIFA7P-73" value="" style="endArrow=classic;html=1;rounded=0;entryX=1.01;entryY=0.446;entryDx=0;entryDy=0;entryPerimeter=0;exitX=-0.01;exitY=0.714;exitDx=0;exitDy=0;exitPerimeter=0;" edge="1" parent="1">
          <mxGeometry width="50" height="50" relative="1" as="geometry">
            <mxPoint x="1110" y="619.0200000000002" as="sourcePoint" />
            <mxPoint x="960.6299999999999" y="618" as="targetPoint" />
          </mxGeometry>
        </mxCell>
        <mxCell id="AKCXDm1FOeJPtNoIFA7P-74" value="sendPing" style="text;html=1;align=center;verticalAlign=middle;resizable=0;points=[];autosize=1;strokeColor=none;fillColor=none;" vertex="1" parent="1">
          <mxGeometry x="1000" y="590" width="70" height="30" as="geometry" />
        </mxCell>
        <mxCell id="AKCXDm1FOeJPtNoIFA7P-76" value="" style="endArrow=classic;html=1;rounded=0;exitX=1.008;exitY=0.539;exitDx=0;exitDy=0;exitPerimeter=0;entryX=-0.022;entryY=0.526;entryDx=0;entryDy=0;entryPerimeter=0;" edge="1" parent="1" source="3a17f1ce550125da-8" target="3a17f1ce550125da-2">
          <mxGeometry width="50" height="50" relative="1" as="geometry">
            <mxPoint x="910" y="660" as="sourcePoint" />
            <mxPoint x="960" y="610" as="targetPoint" />
          </mxGeometry>
        </mxCell>
        <mxCell id="AKCXDm1FOeJPtNoIFA7P-77" value="" style="endArrow=classic;startArrow=classic;html=1;rounded=0;entryX=1;entryY=0.5;entryDx=0;entryDy=0;exitX=0.5;exitY=0;exitDx=0;exitDy=0;" edge="1" parent="1" source="3a17f1ce550125da-4" target="AKCXDm1FOeJPtNoIFA7P-5">
          <mxGeometry width="50" height="50" relative="1" as="geometry">
            <mxPoint x="720" y="510" as="sourcePoint" />
            <mxPoint x="770" y="460" as="targetPoint" />
            <Array as="points">
              <mxPoint x="1200" y="275" />
            </Array>
          </mxGeometry>
        </mxCell>
        <mxCell id="AKCXDm1FOeJPtNoIFA7P-78" value="" style="endArrow=classic;html=1;rounded=0;exitX=-0.003;exitY=0.603;exitDx=0;exitDy=0;exitPerimeter=0;entryX=0.989;entryY=0.616;entryDx=0;entryDy=0;entryPerimeter=0;" edge="1" parent="1" source="3a17f1ce550125da-2" target="3a17f1ce550125da-8">
          <mxGeometry width="50" height="50" relative="1" as="geometry">
            <mxPoint x="750" y="580" as="sourcePoint" />
            <mxPoint x="800" y="530" as="targetPoint" />
          </mxGeometry>
        </mxCell>
        <mxCell id="AKCXDm1FOeJPtNoIFA7P-79" value="sendPing" style="text;html=1;align=center;verticalAlign=middle;resizable=0;points=[];autosize=1;strokeColor=none;fillColor=none;" vertex="1" parent="1">
          <mxGeometry x="585" y="648" width="70" height="30" as="geometry" />
        </mxCell>
        <mxCell id="AKCXDm1FOeJPtNoIFA7P-80" value="sendPartToWorker" style="text;html=1;align=center;verticalAlign=middle;resizable=0;points=[];autosize=1;strokeColor=none;fillColor=none;" vertex="1" parent="1">
          <mxGeometry x="570" y="365" width="120" height="30" as="geometry" />
        </mxCell>
      </root>
    </mxGraphModel>
  </diagram>
</mxfile>
